# xmcd
#
# Track frame offsets:
# 150
# 2759
# 32465
# 47417
# 58588
# 69641
# 84325
# 107887
# 118193
# 139737
# 160100
# 170662
# 187025
# 202455
# 217157
# 234577
# 253329
#
# Disc length: 3560 seconds
#
#
# Revision: 1
# Processed by: cddbd v1.5.2PL0 Copyright (c) Steve Scherf et al.
# Submitted via: FreeRIP 2.96 
#
DISCID=fd0de611
DTITLE=Elks, The [AUS] - Live 1977
DYEAR=2006
DGENRE=Blues
TTITLE0=Great intro by a youthful HG Nelson! [Live, Storey Hall, RMIT, Melbourne, 1977, and broadcast live on 3RMT-FM] [SpknWrd]
TTITLE1=Little Red Rooster [Live, Storey Hall, RMIT, Melbourne, 1977, and broadcast live on 3RMT-FM] [MLVox]
TTITLE2=She's into Something [Live, Storey Hall, RMIT, Melbourne, 1977, and broadcast live on 3RMT-FM] [MLVox]
TTITLE3=Loaded [Live, Storey Hall, RMIT, Melbourne, 1977, and broadcast live on 3RMT-FM] [MLVox]
TTITLE4=You'll Be Mine [Live, Storey Hall, RMIT, Melbourne, 1977, and broadcast live on 3RMT-FM] [MLVox]
TTITLE5=Had You Told It Like It Was [Live, Storey Hall, RMIT, Melbourne, 1977, and broadcast live on 3RMT-FM] [MLVox]
TTITLE6=Mighty Crazy [Live, Storey Hall, RMIT, Melbourne, 1977, and broadcast live on 3RMT-FM] [MLVox]
TTITLE7=Looking Back [Live, Storey Hall, RMIT, Melbourne, 1977, and broadcast live on 3RMT-FM] [MLVox]
TTITLE8=All Aboard  [Live, Storey Hall, RMIT, Melbourne, 1977, and broadcast live on 3RMT-FM] [MLVox]
TTITLE9=Lawdy Lawdy [Live, Storey Hall, RMIT, Melbourne, 1977, and broadcast live on 3RMT-FM] [MLVox]
TTITLE10=I'm a Lover Not a Fighter [Live, Storey Hall, RMIT, Melbourne, 1977, and broadcast live on 3RMT-FM] [MLVox]
TTITLE11=Lonely Avanue  [Live, Storey Hall, RMIT, Melbourne, 1977, and broadcast live on 3RMT-FM] [MLVox]
TTITLE12=Boom Boom, Out Go the Lights [Live, Storey Hall, RMIT, Melbourne, 1977, and broadcast live on 3RMT-FM] [MLVox]
TTITLE13=Change [Live, Storey Hall, RMIT, Melbourne, 1977, and broadcast live on 3RMT-FM] [MLVox]
TTITLE14=Nine to Five [Live, Storey Hall, RMIT, Melbourne, 1977, and broadcast live on 3RMT-FM] [MLVox]
TTITLE15=Fast Buck [Live, Storey Hall, RMIT, Melbourne, 1977, and broadcast live on 3RMT-FM] [MLVox]
TTITLE16=Cadillac [Live, Storey Hall, RMIT, Melbourne, 1977, and broadcast live on 3RMT-FM] [MLVox]
EXTD=
EXTT0=
EXTT1=
EXTT2=
EXTT3=
EXTT4=
EXTT5=
EXTT6=
EXTT7=
EXTT8=
EXTT9=
EXTT10=
EXTT11=
EXTT12=
EXTT13=
EXTT14=
EXTT15=
EXTT16=
PLAYORDER=
